<?xml version="1.0" encoding="UTF-8" standalone="no"?>
<!-- Created with Inkscape (http://www.inkscape.org/) -->

<svg
   width="71.810181mm"
   height="83.725693mm"
   viewBox="0 0 71.810181 83.725693"
   version="1.1"
   id="svg1"
   xml:space="preserve"
   xmlns:xlink="http://www.w3.org/1999/xlink"
   xmlns="http://www.w3.org/2000/svg"
   xmlns:svg="http://www.w3.org/2000/svg"><defs
     id="defs1"><linearGradient
       id="linearGradient4"><stop
         style="stop-color:#0d306a;stop-opacity:1;"
         offset="0"
         id="stop5" /><stop
         style="stop-color:#659fd6;stop-opacity:1;"
         offset="1"
         id="stop6" /></linearGradient><linearGradient
       xlink:href="#linearGradient4"
       id="linearGradient6"
       x1="96.128723"
       y1="197.06598"
       x2="139.86514"
       y2="152.67538"
       gradientUnits="userSpaceOnUse" /></defs><g
     id="layer1"
     transform="translate(-75.966776,-144.55453)"><path
       style="fill:url(#linearGradient6);fill-opacity:1;stroke-width:0.40886"
       d="m 109.556,227.16987 c -4.8353,-2.47295 -8.7493,-5.04958 -12.891658,-8.48672 -1.7586,-1.4592 -5.59845,-5.2944 -7.06205,-7.0535 -3.91797,-4.709 -6.76826,-9.52895 -9.11882,-15.42031 -1.61047,-4.03641 -3.20148,-10.70081 -3.86092,-16.17255 -0.40593,-3.3682 -0.65251,-7.90379 -0.65576,-12.06181 -0.002,-2.6973 0.28496,-8.92039 0.41717,-9.04377 0.10272,-0.0959 6.14884,-1.75004 8.92169,-2.44092 1.31916,-0.32868 2.4141,-0.61267 2.43319,-0.63109 0.0191,-0.0184 0.30185,-1.0726 0.62834,-2.34262 0.6463,-2.51411 1.97875,-7.47592 2.01737,-7.51233 0.0132,-0.0125 0.97327,-0.14861 2.13347,-0.30258 6.90121,-0.91588 10.794028,-1.14714 19.309708,-1.14714 6.89864,0 10.17745,0.13287 14.87442,0.60279 2.35084,0.23519 6.6061,0.77473 6.67811,0.84673 0.0776,0.0776 0.87366,2.99359 1.86433,6.82884 l 0.78312,3.03174 2.66625,0.67041 c 2.94422,0.74031 8.5728,2.29136 8.69168,2.39515 0.0416,0.0363 0.15667,1.52645 0.25568,3.31138 0.21978,3.96212 0.16418,11.44857 -0.10685,14.38762 -0.74467,8.07519 -2.11142,14.2891 -4.45901,20.27297 -0.61874,1.57714 -2.15151,4.74709 -3.11728,6.4469 -5.27589,9.2859 -13.07681,16.84212 -23.31655,22.58516 -1.75811,0.98605 -4.51842,2.35083 -4.7448,2.34598 -0.0975,-0.002 -1.15088,-0.50174 -2.34083,-1.11033 z m 0.81133,-32.11341 v -28.14319 l -3.54282,0.0748 c -5.38669,0.11371 -11.844178,0.43305 -22.203448,1.09802 -2.29067,0.14704 -4.25615,0.26738 -4.36775,0.26743 -0.19548,9e-5 -0.20073,0.12802 -0.14313,3.48882 0.0977,5.70082 0.82809,11.72156 1.98458,16.3594 1.7643,7.07537 4.85527,13.69046 8.89743,19.04172 4.10641,5.43633 9.929378,10.47572 16.778878,14.521 1.83289,1.08249 2.41238,1.41068 2.51512,1.42438 0.0446,0.006 0.0811,-12.65361 0.0811,-28.13237 z m -20.684038,3.59028 c -1.3335,-0.35563 -2.27517,-1.1258 -2.62237,-2.14475 -0.25891,-0.75988 -0.21719,-2.08792 0.0932,-2.96743 0.62942,-1.78331 2.43307,-3.49315 4.25579,-4.03444 1.1735,-0.34849 2.85677,-0.3955 3.62372,-0.10119 0.17346,0.0666 0.18681,-0.46972 0.21395,-8.59201 l 0.029,-8.663 0.34153,-0.3415 c 0.26609,-0.26607 0.45975,-0.35285 0.87679,-0.39293 0.51468,-0.0494 0.65363,0.009 3.613778,1.50941 3.66096,1.85614 4.72016,2.52221 5.88938,3.70346 1.53984,1.5557 2.16702,3.23221 2.06647,5.52389 -0.12038,2.74371 -1.09171,4.80543 -3.18923,6.76937 -1.25583,1.17586 -2.30347,1.55913 -2.62412,0.96 -0.25942,-0.48474 -0.032,-1.0239 1.03804,-2.46096 0.3855,-0.51772 0.85794,-1.2567 1.04986,-1.64219 0.31964,-0.642 0.34895,-0.78739 0.34895,-1.73084 0,-0.90857 -0.0356,-1.10251 -0.30227,-1.6455 -0.62822,-1.2793 -2.14015,-2.25387 -4.565718,-2.94303 l -1.29813,-0.36883 -0.0625,7.15623 c -0.0448,5.13454 -0.0999,7.29245 -0.1949,7.63845 -0.31695,1.15439 -1.11468,2.34477 -2.13579,3.18703 -1.83884,1.51676 -4.36357,2.13596 -6.44539,1.58076 z m 24.383148,24.3258 c 1.66783,-0.85086 4.9092,-2.95358 7.209,-4.67658 l 1.44257,-1.08077 -4.52515,-4.52611 c -2.48883,-2.48937 -4.54971,-4.52612 -4.57972,-4.52612 -0.03,0 -0.0546,3.38326 -0.0546,7.51835 0,4.13509 0.0141,7.51834 0.0314,7.51834 0.0172,0 0.23168,-0.1022 0.47652,-0.22711 z m 17.14055,-13.80893 c 1.32826,-1.67262 1.80232,-2.31749 2.87997,-3.91762 l 1.05641,-1.56862 -10.73811,-10.73852 c -5.90596,-5.90618 -10.76254,-10.73852 -10.7924,-10.73854 -0.0299,-1e-5 -0.0415,2.51918 -0.0259,5.59819 l 0.0284,5.59822 8.35508,8.35672 c 4.59529,4.5962 8.38427,8.35672 8.41994,8.35672 0.0357,0 0.40313,-0.42595 0.81655,-0.94655 z m 9.43092,-17.33547 c 1.06696,-3.30824 1.88233,-7.38338 2.44585,-12.22407 0.40026,-3.43826 0.51067,-4.99507 0.56964,-8.03219 l 0.0625,-3.21828 h -0.32549 c -0.17902,0 -1.31754,-0.0707 -2.53006,-0.15721 -1.21251,-0.0865 -3.54327,-0.23205 -5.17945,-0.32352 -1.63619,-0.0915 -3.32782,-0.19313 -3.75917,-0.22592 l -0.78429,-0.0596 v 8.41483 8.41484 l 4.45938,4.46035 c 2.45266,2.45319 4.49214,4.42495 4.53219,4.38168 0.04,-0.0433 0.26905,-0.68717 0.50891,-1.4309 z M 127.8511,167.51931 c -0.15327,-0.15328 -9.3215,-0.57202 -12.52412,-0.57202 h -1.55949 l 6.75649,6.73406 c 3.71607,3.70373 6.88194,6.86945 7.03526,7.03493 l 0.27877,0.30088 0.0279,-6.72761 c 0.0153,-3.70018 0.009,-6.74679 -0.0148,-6.77024 z m -32.844988,-4.25079 c 8.835098,-0.58059 21.203998,-0.64817 30.127458,-0.1646 4.904,0.26575 8.17331,0.41185 8.21791,0.36725 0.16289,-0.16289 -2.84905,-13.95685 -3.18428,-14.58324 -0.0841,-0.15707 -0.29588,-0.21131 -1.05492,-0.27014 -0.52235,-0.0405 -1.70427,-0.1428 -2.62649,-0.22737 -4.56865,-0.41893 -6.47073,-0.50191 -12.81905,-0.55921 -6.78211,-0.0612 -9.19176,0.007 -14.094488,0.40061 -1.44522,0.11595 -3.37735,0.26842 -4.29364,0.33883 -0.91628,0.0704 -1.72106,0.16206 -1.78839,0.20367 -0.0673,0.0416 -0.24252,0.63043 -0.38933,1.30848 -0.68052,3.14316 -1.79528,8.68553 -2.14091,10.64428 -0.20998,1.18995 -0.41427,2.32378 -0.45398,2.51962 l -0.0722,0.35607 0.69053,-0.0623 c 0.37979,-0.0343 2.12659,-0.15664 3.88177,-0.27198 z m 1.24404,-2.40026 c -0.34534,-0.19583 -0.37522,-0.30253 -0.37697,-1.34619 -0.002,-1.33861 0.0807,-1.4379 1.30112,-1.5569 3.026828,-0.29514 6.209628,-0.37517 14.869778,-0.3739 7.58919,0.001 9.58616,0.0337 12.11589,0.19796 3.21612,0.20878 3.42627,0.25436 3.62878,0.787 0.13468,0.35422 0.133,1.57198 -0.002,1.92878 -0.18479,0.48602 -0.46334,0.53303 -2.3476,0.39618 -6.33483,-0.46007 -20.89125,-0.46478 -27.024798,-0.009 -1.74436,0.1297 -1.89517,0.12801 -2.16355,-0.0242 z m 0.95362,-5.81553 c -0.37032,-0.15818 -0.46682,-0.46065 -0.46682,-1.46317 0,-1.52783 -0.16088,-1.46487 4.435278,-1.73593 7.91504,-0.4668 24.32266,-0.18818 25.26463,0.42903 0.31414,0.20583 0.41207,0.67487 0.35431,1.69703 -0.0372,0.65789 -0.082,0.80077 -0.309,0.98457 -0.2323,0.18811 -0.3671,0.2065 -1.0775,0.14702 -6.72943,-0.5635 -21.15243,-0.56931 -27.369588,-0.011 -0.32724,0.0294 -0.70132,0.008 -0.83131,-0.0475 z"
       id="path1" /></g></svg>
